# xmcd
#
# Track frame offsets:
# 150
# 26213
# 44811
# 64988
# 89833
# 105541
# 122038
# 139558
# 157408
# 181906
# 207523
# 240241
# 270436
# 298040
#
# Disc length: 4273 seconds
#
#
# Revision: 9
# Processed by: cddbd v1.5.2PL0 Copyright (c) Steve Scherf et al.
# Submitted via: FreeRIP 2.90 
#
DISCID=d910af0e
DTITLE=R D Burman - Ghar - Masoom - Ijaazat
DYEAR=1900
DGENRE=
TTITLE0=Tere Bina Jiya - Lata Mangeshkar
TTITLE1=Aap Ki Ankhon - Kishore Kumar/Lata Mangeshkar
TTITLE2=Phir Wohi Raat Hai - Kishore Kumar
TTITLE3=Aaj Kal Paon - Lata Mangeshkar
TTITLE4=Botal Se Ek Baat - Asha Bhonsle/Mohd Rafi
TTITLE5=Tujhse Naraaz Nahin Zindagi - Lata Mangeshkar
TTITLE6=Huzur Is Kadar - Bhupinder/Suresh Wadkar
TTITLE7=Lakdi Ki Kathi - Vanita Mishra/Gurpreet Kaur/Gauri Bapat
TTITLE8=Do Naina Aur Ek Kahani - Aarti Mukherjee
TTITLE9=Tujhse Naraaz Nahin Zindagi (2) - Anup Ghoshal
TTITLE10=Chhotisi Kahani Se - Asha Bhonsle
TTITLE11=Mera Kuchh Saamaan - Asha Bhonsle
TTITLE12=Katra Katra - Asha Bhonsle
TTITLE13=Khali Haath Sham Aayi Hai - Asha Bhonsle
EXTD=
EXTT0=
EXTT1=
EXTT2=
EXTT3=
EXTT4=
EXTT5=
EXTT6=
EXTT7=
EXTT8=
EXTT9=
EXTT10=
EXTT11=
EXTT12=
EXTT13=
PLAYORDER=
